0
SECTION
2
ENTITIES
0
LINE
8
FRONT_CONTOUR
10
27.612
20
20.226
30
0.0
11
56.682
21
20.278
31
0.0
0
LINE
8
BACK_CONTOUR
10
27.612
20
20.226
30
30.0
11
56.682
21
20.278
31
30.0
0
LINE
8
EXTRUDE_EDGE
10
27.612
20
20.226
30
0.0
11
27.612
21
20.226
31
30.0
0
LINE
8
FRONT_CONTOUR
10
56.682
20
20.278
30
0.0
11
39.045
21
20.246
31
0.0
0
LINE
8
BACK_CONTOUR
10
56.682
20
20.278
30
30.0
11
39.045
21
20.246
31
30.0
0
LINE
8
EXTRUDE_EDGE
10
56.682
20
20.278
30
0.0
11
56.682
21
20.278
31
30.0
0
LINE
8
FRONT_CONTOUR
10
39.045
20
20.246
30
0.0
11
223.889
21
20.576
31
0.0
0
LINE
8
BACK_CONTOUR
10
39.045
20
20.246
30
30.0
11
223.889
21
20.576
31
30.0
0
LINE
8
EXTRUDE_EDGE
10
39.045
20
20.246
30
0.0
11
39.045
21
20.246
31
30.0
0
LINE
8
FRONT_CONTOUR
10
223.889
20
20.576
30
0.0
11
66.136
21
20.294
31
0.0
0
LINE
8
BACK_CONTOUR
10
223.889
20
20.576
30
30.0
11
66.136
21
20.294
31
30.0
0
LINE
8
EXTRUDE_EDGE
10
223.889
20
20.576
30
0.0
11
223.889
21
20.576
31
30.0
0
LINE
8
FRONT_CONTOUR
10
66.136
20
20.294
30
0.0
11
66.084
21
49.218
31
0.0
0
LINE
8
BACK_CONTOUR
10
66.136
20
20.294
30
30.0
11
66.084
21
49.218
31
30.0
0
LINE
8
EXTRUDE_EDGE
10
66.136
20
20.294
30
0.0
11
66.136
21
20.294
31
30.0
0
LINE
8
FRONT_CONTOUR
10
66.084
20
49.218
30
0.0
11
66.115
21
31.824
31
0.0
0
LINE
8
BACK_CONTOUR
10
66.084
20
49.218
30
30.0
11
66.115
21
31.824
31
30.0
0
LINE
8
EXTRUDE_EDGE
10
66.084
20
49.218
30
0.0
11
66.084
21
49.218
31
30.0
0
LINE
8
FRONT_CONTOUR
10
66.115
20
31.824
30
0.0
11
131.402
21
31.941
31
0.0
0
LINE
8
BACK_CONTOUR
10
66.115
20
31.824
30
30.0
11
131.402
21
31.941
31
30.0
0
LINE
8
EXTRUDE_EDGE
10
66.115
20
31.824
30
0.0
11
66.115
21
31.824
31
30.0
0
LINE
8
FRONT_CONTOUR
10
131.402
20
31.941
30
0.0
11
128.037
21
31.935
31
0.0
0
LINE
8
BACK_CONTOUR
10
131.402
20
31.941
30
30.0
11
128.037
21
31.935
31
30.0
0
LINE
8
EXTRUDE_EDGE
10
131.402
20
31.941
30
0.0
11
131.402
21
31.941
31
30.0
0
LINE
8
FRONT_CONTOUR
10
128.037
20
31.935
30
0.0
11
223.537
21
32.105
31
0.0
0
LINE
8
BACK_CONTOUR
10
128.037
20
31.935
30
30.0
11
223.537
21
32.105
31
30.0
0
LINE
8
EXTRUDE_EDGE
10
128.037
20
31.935
30
0.0
11
128.037
21
31.935
31
30.0
0
LINE
8
FRONT_CONTOUR
10
223.537
20
32.105
30
0.0
11
199.306
21
32.062
31
0.0
0
LINE
8
BACK_CONTOUR
10
223.537
20
32.105
30
30.0
11
199.306
21
32.062
31
30.0
0
LINE
8
EXTRUDE_EDGE
10
223.537
20
32.105
30
0.0
11
223.537
21
32.105
31
30.0
0
LINE
8
FRONT_CONTOUR
10
199.306
20
32.062
30
0.0
11
229.7
21
32.116
31
0.0
0
LINE
8
BACK_CONTOUR
10
199.306
20
32.062
30
30.0
11
229.7
21
32.116
31
30.0
0
LINE
8
EXTRUDE_EDGE
10
199.306
20
32.062
30
0.0
11
199.306
21
32.062
31
30.0
0
LINE
8
FRONT_CONTOUR
10
229.7
20
32.116
30
0.0
11
229.721
21
20.586
31
0.0
0
LINE
8
BACK_CONTOUR
10
229.7
20
32.116
30
30.0
11
229.721
21
20.586
31
30.0
0
LINE
8
EXTRUDE_EDGE
10
229.7
20
32.116
30
0.0
11
229.7
21
32.116
31
30.0
0
LINE
8
FRONT_CONTOUR
10
229.721
20
20.586
30
0.0
11
244.291
21
20.612
31
0.0
0
LINE
8
BACK_CONTOUR
10
229.721
20
20.586
30
30.0
11
244.291
21
20.612
31
30.0
0
LINE
8
EXTRUDE_EDGE
10
229.721
20
20.586
30
0.0
11
229.721
21
20.586
31
30.0
0
LINE
8
FRONT_CONTOUR
10
244.291
20
20.612
30
0.0
11
27.612
21
20.226
31
0.0
0
LINE
8
BACK_CONTOUR
10
244.291
20
20.612
30
30.0
11
27.612
21
20.226
31
30.0
0
LINE
8
EXTRUDE_EDGE
10
244.291
20
20.612
30
0.0
11
244.291
21
20.612
31
30.0
0
POINT
8
RED_MARKS
10
164.092
20
143.163
30
0.0
0
POINT
8
RED_MARKS
10
164.092
20
143.163
30
30.0
0
ENDSEC
0
EOF